<svg width="64" height="64" viewBox="0 0 64 64" fill="none" xmlns="http://www.w3.org/2000/svg">
<circle cx="32.4375" cy="32.25" r="31.5" fill="#A9D6CB"/>
<path d="M21.9124 47.4798L22.5532 48.505C23.5362 50.0672 24.8842 51.3671 26.4811 52.2926C28.0781 53.2181 29.8761 53.7415 31.7203 53.8177C33.5645 53.8939 35.3995 53.5205 37.0674 52.7299C38.7352 51.9392 40.1858 50.7549 41.2942 49.279L42.4174 47.7815C43.8744 45.8314 44.6698 43.4666 44.6875 41.0325L47.3672 38.7984C47.76 38.4733 48.081 38.0703 48.3101 37.6147C48.5392 37.1592 48.6712 36.6611 48.6979 36.1519C48.7246 35.6427 48.6454 35.1336 48.4652 34.6566C48.285 34.1796 48.0079 33.7452 47.6512 33.3808C47.7145 33.2694 47.7485 33.1438 47.75 33.0156V28.4219C47.7473 25.8411 47.0918 23.303 45.8446 21.0437C44.5974 18.7843 42.799 16.8772 40.6166 15.4996L39.7691 13.8153C39.0894 12.4526 38.0434 11.3064 36.7485 10.5052C35.4536 9.70405 33.961 9.27965 32.4382 9.27965C30.9155 9.27965 29.4229 9.70405 28.128 10.5052C26.833 11.3064 25.787 12.4526 25.1074 13.8153L24.4796 15.0632C24.4267 15.1719 24.4004 15.2916 24.403 15.4124C22.171 16.7691 20.3278 18.6801 19.0525 20.9597C17.7773 23.2392 17.1132 25.8099 17.125 28.4219V33.0156C17.1277 33.143 17.1633 33.2675 17.2283 33.377C16.8706 33.7411 16.5924 34.1755 16.4115 34.6527C16.2305 35.1299 16.1506 35.6396 16.177 36.1493C16.2033 36.659 16.3353 37.1577 16.5645 37.6137C16.7937 38.0697 17.1152 38.4731 17.5085 38.7984L20.1875 41.0302V41.4651C20.1868 43.5921 20.7845 45.6764 21.9124 47.4798ZM43.1562 33.0156V40.9728C43.1518 43.0961 42.4631 45.1615 41.1924 46.8627L40.07 48.3603C39.1137 49.6416 37.8595 50.6704 36.4159 51.3576C34.9724 52.0448 33.383 52.3696 31.7856 52.304C30.1882 52.2384 28.6308 51.7843 27.2485 50.981C25.8661 50.1778 24.7005 49.0496 23.8525 47.6942L23.2109 46.6682C22.2352 45.1082 21.7181 43.3051 21.7187 41.4651V33.0156C21.7143 32.9834 21.7079 32.9514 21.6996 32.9199C22.8097 32.2354 23.8885 31.505 24.9259 30.7187H36.4616L43.1562 32.6879V33.0156ZM26.8247 29.1875C27.2894 28.7886 27.748 28.3813 28.1944 27.9625C29.0949 28.4424 30.0417 28.83 31.0203 29.1194L31.2553 29.1883L26.8247 29.1875ZM47.0119 35.1471C47.1832 35.5728 47.2148 36.042 47.1023 36.4868C46.9897 36.9317 46.7388 37.3293 46.3856 37.6224L44.6875 39.0373V33.7812H44.9937C45.4285 33.7794 45.8537 33.9088 46.2138 34.1525C46.5738 34.3962 46.852 34.7428 47.0119 35.1471ZM32.4375 10.8125C33.6291 10.8106 34.7992 11.1305 35.8242 11.7384C36.8491 12.3463 37.691 13.2196 38.2608 14.2662C38.0725 14.1897 37.878 14.1261 37.6858 14.0557C37.6797 14.0557 37.6751 14.0473 37.669 14.045C37.6407 14.035 37.6116 14.0281 37.5832 14.0182C37.2219 13.888 36.8546 13.7716 36.4815 13.669C36.3881 13.643 36.2955 13.6208 36.202 13.5971C35.8705 13.5129 35.5382 13.434 35.1983 13.372C35.0061 13.336 34.8155 13.3123 34.6203 13.2832C34.3668 13.2472 34.1157 13.2066 33.8546 13.1813C33.3853 13.1362 32.9122 13.1094 32.4375 13.1094C30.4357 13.1149 28.4544 13.5129 26.6057 14.2808C27.1737 13.2297 28.0159 12.3522 29.0428 11.7415C30.0696 11.1308 31.2428 10.8098 32.4375 10.8125ZM32.4375 14.6406C32.8678 14.6406 33.2911 14.6666 33.7115 14.7049C33.9511 14.7279 34.19 14.7654 34.4289 14.8014C34.5904 14.8251 34.752 14.8458 34.9112 14.878C35.2274 14.9369 35.5421 15.0089 35.856 15.09C35.9226 15.1076 35.99 15.1237 36.0558 15.1421C36.4039 15.2381 36.7497 15.3475 37.0932 15.4706C39.761 16.4297 42.0683 18.1877 43.7012 20.5052C45.3341 22.8226 46.2131 25.5869 46.2187 28.4219V31.9927L31.4521 27.6494C29.3579 27.0347 27.4438 25.9217 25.8737 24.4057C24.3037 22.8896 23.1244 21.0156 22.4369 18.9442C23.7194 17.5791 25.2691 16.4926 26.9895 15.7522C28.71 15.0118 30.5645 14.6335 32.4375 14.6406ZM18.6562 28.4219C18.6558 25.5044 19.5857 22.6629 21.3106 20.3101C22.4263 23.0836 24.3441 25.4612 26.8185 27.1387C25.9565 27.9308 25.0599 28.6837 24.1289 29.3973C24.1212 29.4049 24.1121 29.4095 24.1044 29.4172C22.7505 30.4532 21.3303 31.3995 19.8529 32.25C19.445 32.2543 19.0406 32.3263 18.6562 32.4628V28.4219ZM18.4893 37.6224C18.1461 37.3366 17.8994 36.9519 17.7827 36.5209C17.666 36.0898 17.685 35.6332 17.8372 35.2133C17.9893 34.7934 18.2672 34.4307 18.633 34.1744C18.9988 33.9181 19.4346 33.7809 19.8812 33.7812H20.1875V39.0373L18.4893 37.6224Z" fill="#264065"/>
<path d="M31.6719 36.8438C31.6719 35.9352 31.4025 35.047 30.8977 34.2916C30.3929 33.5362 29.6755 32.9474 28.8361 32.5997C27.9967 32.252 27.073 32.161 26.1819 32.3383C25.2908 32.5155 24.4723 32.953 23.8299 33.5955C23.1874 34.2379 22.7499 35.0565 22.5726 35.9476C22.3954 36.8387 22.4864 37.7623 22.8341 38.6017C23.1817 39.4411 23.7705 40.1586 24.526 40.6633C25.2814 41.1681 26.1696 41.4375 27.0781 41.4375C28.2961 41.4363 29.4638 40.9519 30.3251 40.0907C31.1863 39.2295 31.6707 38.0617 31.6719 36.8438ZM27.0781 39.9063C26.4724 39.9063 25.8803 39.7266 25.3767 39.3901C24.8731 39.0536 24.4805 38.5753 24.2487 38.0157C24.017 37.4561 23.9563 36.8404 24.0745 36.2463C24.1926 35.6522 24.4843 35.1065 24.9126 34.6782C25.3409 34.2499 25.8866 33.9583 26.4807 33.8401C27.0747 33.7219 27.6905 33.7826 28.2501 34.0144C28.8097 34.2462 29.288 34.6387 29.6245 35.1423C29.961 35.6459 30.1406 36.238 30.1406 36.8438C30.1406 37.656 29.818 38.4349 29.2436 39.0093C28.6693 39.5836 27.8904 39.9063 27.0781 39.9063Z" fill="#264065"/>
<path d="M27.8438 34.5469H26.3125V36.0781H27.8438V34.5469Z" fill="#264065"/>
<path d="M27.8438 37.6094H26.3125V39.1406H27.8438V37.6094Z" fill="#264065"/>
<path d="M29.375 36.0781H27.8438V37.6094H29.375V36.0781Z" fill="#264065"/>
<path d="M26.3125 36.0781H24.7812V37.6094H26.3125V36.0781Z" fill="#264065"/>
<path d="M33.2031 36.8438C33.2031 37.7523 33.4725 38.6405 33.9773 39.3959C34.4821 40.1513 35.1995 40.7401 36.0389 41.0878C36.8783 41.4355 37.802 41.5265 38.6931 41.3492C39.5842 41.172 40.4027 40.7345 41.0451 40.092C41.6876 39.4496 42.1251 38.631 42.3024 37.7399C42.4796 36.8488 42.3886 35.9252 42.0409 35.0858C41.6933 34.2464 41.1045 33.529 40.349 33.0242C39.5936 32.5194 38.7054 32.25 37.7969 32.25C36.5789 32.2512 35.4112 32.7356 34.5499 33.5968C33.6887 34.4581 33.2043 35.6258 33.2031 36.8438ZM37.7969 33.7813C38.4026 33.7813 38.9947 33.9609 39.4983 34.2974C40.0019 34.6339 40.3945 35.1122 40.6263 35.6718C40.8581 36.2314 40.9187 36.8471 40.8005 37.4412C40.6824 38.0353 40.3907 38.581 39.9624 39.0093C39.5341 39.4376 38.9884 39.7292 38.3943 39.8474C37.8003 39.9656 37.1845 39.9049 36.6249 39.6731C36.0653 39.4413 35.587 39.0488 35.2505 38.5452C34.914 38.0416 34.7344 37.4495 34.7344 36.8438C34.7344 36.0315 35.057 35.2526 35.6314 34.6782C36.2057 34.1039 36.9847 33.7813 37.7969 33.7813Z" fill="#264065"/>
<path d="M38.5625 34.5469H37.0312V36.0781H38.5625V34.5469Z" fill="#264065"/>
<path d="M38.5625 37.6094H37.0312V39.1406H38.5625V37.6094Z" fill="#264065"/>
<path d="M40.0938 36.0781H38.5625V37.6094H40.0938V36.0781Z" fill="#264065"/>
<path d="M37.0312 36.0781H35.5V37.6094H37.0312V36.0781Z" fill="#264065"/>
<path d="M35.7243 45.4899C34.8519 46.3604 33.6699 46.8492 32.4375 46.8492C31.2051 46.8492 30.0231 46.3604 29.1507 45.4899C29.0063 45.3505 28.8129 45.2733 28.6121 45.2751C28.4114 45.2768 28.2193 45.3573 28.0774 45.4993C27.9354 45.6412 27.8549 45.8333 27.8532 46.034C27.8514 46.2347 27.9286 46.4281 28.0681 46.5725C29.2278 47.7297 30.7992 48.3795 32.4375 48.3795C34.0758 48.3795 35.6472 47.7297 36.8069 46.5725C36.9464 46.4281 37.0236 46.2347 37.0218 46.034C37.0201 45.8333 36.9395 45.6412 36.7976 45.4993C36.6556 45.3573 36.4636 45.2768 36.2629 45.2751C36.0621 45.2733 35.8687 45.3505 35.7243 45.4899Z" fill="#264065"/>
<path d="M30.564 44.4234L32.0952 45.1891C32.1852 45.234 32.2832 45.2608 32.3835 45.2679C32.4838 45.2749 32.5846 45.2622 32.68 45.2304C32.7754 45.1985 32.8636 45.1482 32.9396 45.0822C33.0155 45.0163 33.0777 44.936 33.1227 44.8461C33.1676 44.7561 33.1944 44.6581 33.2015 44.5578C33.2086 44.4574 33.1958 44.3567 33.164 44.2613C33.1321 44.1659 33.0818 44.0777 33.0159 44.0017C32.9499 43.9258 32.8697 43.8635 32.7797 43.8186L31.8678 43.363L33.1533 39.9805C33.189 39.8865 33.2058 39.7864 33.2028 39.6859C33.1998 39.5854 33.1771 39.4864 33.1358 39.3947C33.0946 39.303 33.0357 39.2203 32.9625 39.1514C32.8893 39.0824 32.8033 39.0285 32.7093 38.9929C32.6152 38.9572 32.5151 38.9403 32.4146 38.9433C32.3141 38.9463 32.2152 38.9691 32.1235 39.0103C32.0317 39.0516 31.9491 39.1105 31.8801 39.1837C31.8111 39.2569 31.7573 39.3429 31.7216 39.4369L30.1903 43.4664C30.1229 43.6439 30.1238 43.84 30.1928 44.0169C30.2618 44.1937 30.3941 44.3386 30.564 44.4234Z" fill="#264065"/>
</svg>
