<svg width="64" height="64" viewBox="0 0 64 64" fill="none" xmlns="http://www.w3.org/2000/svg">
<circle cx="32.3125" cy="32.25" r="31.5" fill="#A9D6CB"/>
<path d="M18.8115 45.3912C18.509 45.1924 18.2195 44.9745 17.9448 44.7389L16.9877 43.9181C16.8334 43.7861 16.633 43.7209 16.4305 43.7367C16.2281 43.7525 16.0402 43.848 15.9082 44.0024C15.7762 44.1567 15.711 44.3571 15.7267 44.5596C15.7425 44.762 15.8381 44.9499 15.9924 45.0819L16.9495 45.9011C17.2737 46.1797 17.6156 46.4369 17.9731 46.6713C18.1429 46.783 18.35 46.8227 18.549 46.7816C18.748 46.7405 18.9226 46.6221 19.0343 46.4524C19.1459 46.2826 19.1856 46.0754 19.1446 45.8764C19.1035 45.6774 18.985 45.5029 18.8153 45.3912H18.8115ZM25.294 46.6759C24.8205 46.7562 24.3411 46.7967 23.8608 46.7969H23.5078C22.6748 46.7971 21.8462 46.6751 21.0486 46.4347C20.8541 46.3763 20.6443 46.3975 20.4654 46.4937C20.2865 46.5899 20.1531 46.7532 20.0947 46.9477C20.0362 47.1422 20.0574 47.352 20.1536 47.5309C20.2498 47.7098 20.4131 47.8432 20.6076 47.9017C21.5484 48.1844 22.5255 48.328 23.5078 48.3281H23.8608C24.4267 48.3281 24.9917 48.2804 25.5497 48.1857C25.6489 48.1689 25.7437 48.1328 25.8289 48.0793C25.9141 48.0259 25.9879 47.9562 26.0461 47.8742C26.1043 47.7922 26.1458 47.6996 26.1682 47.6016C26.1907 47.5036 26.1936 47.4021 26.1768 47.303C26.16 47.2038 26.1238 47.109 26.0704 47.0238C26.0169 46.9386 25.9472 46.8648 25.8653 46.8066C25.7833 46.7484 25.6907 46.7069 25.5926 46.6844C25.4946 46.662 25.3931 46.6591 25.294 46.6759ZM47.6372 43.9181L46.6802 44.7389C46.4055 44.9745 46.116 45.1924 45.8135 45.3912C45.6438 45.5029 45.5253 45.6774 45.4843 45.8764C45.4432 46.0754 45.4829 46.2826 45.5946 46.4524C45.7062 46.6221 45.8808 46.7405 46.0798 46.7816C46.2788 46.8227 46.486 46.783 46.6557 46.6713C47.0129 46.4382 47.3548 46.1825 47.6794 45.9057L48.6364 45.0857C48.7128 45.0204 48.7756 44.9406 48.8212 44.851C48.8668 44.7614 48.8943 44.6636 48.9021 44.5634C48.9099 44.4631 48.8979 44.3623 48.8668 44.2667C48.8356 44.1711 48.786 44.0826 48.7206 44.0062C48.6553 43.9298 48.5755 43.867 48.4859 43.8214C48.3963 43.7758 48.2985 43.7483 48.1983 43.7405C48.098 43.7327 47.9972 43.7447 47.9016 43.7758C47.806 43.8069 47.7175 43.8566 47.6411 43.922L47.6372 43.9181ZM43.5764 46.4347C42.7788 46.6751 41.9502 46.7971 41.1172 46.7969H40.7642C40.2839 46.7967 39.8045 46.7562 39.331 46.6759C39.2318 46.6591 39.1304 46.662 39.0324 46.6844C38.9343 46.7069 38.8417 46.7484 38.7597 46.8066C38.6778 46.8648 38.6081 46.9386 38.5546 47.0238C38.5012 47.109 38.465 47.2038 38.4482 47.303C38.4314 47.4021 38.4343 47.5036 38.4568 47.6016C38.4792 47.6996 38.5207 47.7922 38.5789 47.8742C38.6965 48.0398 38.875 48.1518 39.0753 48.1857C39.6333 48.2804 40.1982 48.3281 40.7642 48.3281H41.1172C42.0995 48.328 43.0766 48.1844 44.0174 47.9017C44.2119 47.8432 44.3752 47.7098 44.4714 47.5309C44.5676 47.352 44.5888 47.1422 44.5303 46.9477C44.4719 46.7532 44.3385 46.5899 44.1596 46.4937C43.9807 46.3975 43.7709 46.3763 43.5764 46.4347Z" fill="#264065"/>
<path d="M47.6793 36.9747C46.8327 36.2534 45.873 35.6766 44.8389 35.2673C45.6128 33.9881 46.1327 32.5716 46.3701 31.0954L47.6196 23.1819C47.6384 23.0626 47.6287 22.9406 47.5913 22.8258C47.5539 22.7109 47.4899 22.6066 47.4045 22.5212C47.3196 22.4351 47.2153 22.3706 47.1003 22.3333C46.9853 22.296 46.863 22.2869 46.7437 22.3068L40.8546 23.2363L39.0798 18.9419C39.0337 18.8304 38.9619 18.7315 38.8702 18.653C38.7786 18.5746 38.6697 18.5189 38.5524 18.4906C38.4352 18.4622 38.3129 18.4619 38.1955 18.4898C38.0781 18.5177 37.969 18.5729 37.877 18.651L35.9768 20.2657L32.977 15.0234C32.9045 14.9135 32.8058 14.8233 32.6898 14.7609C32.5738 14.6985 32.4442 14.6658 32.3125 14.6658C32.1808 14.6658 32.0511 14.6985 31.9351 14.7609C31.8192 14.8233 31.7205 14.9135 31.6479 15.0234L28.652 20.2626L26.7517 18.6479C26.6602 18.5692 26.5511 18.5135 26.4336 18.4856C26.3161 18.4576 26.1937 18.4581 26.0765 18.4871C25.9592 18.5154 25.8503 18.571 25.7587 18.6494C25.667 18.7278 25.5951 18.8267 25.549 18.9381L23.7964 23.1682L18.313 22.303C18.1938 22.2843 18.0719 22.294 17.9572 22.3314C17.8425 22.3687 17.7382 22.4327 17.6529 22.518C17.5676 22.6033 17.5036 22.7076 17.4663 22.8223C17.4289 22.937 17.4192 23.0589 17.4379 23.1781L18.6844 31.1016C18.9174 32.5249 19.4105 33.8932 20.139 35.1379C18.9715 35.5486 17.8898 36.1716 16.9487 36.9754L14.2077 39.3259C14.124 39.3978 14.0567 39.4869 14.0106 39.5872C13.9645 39.6875 13.9406 39.7966 13.9406 39.907C13.9406 40.0174 13.9645 40.1265 14.0106 40.2268C14.0567 40.3271 14.124 40.4162 14.2077 40.4881L16.9464 42.8386C18.7748 44.403 21.1015 45.2636 23.5078 45.2656H23.86C24.8994 45.2664 25.9326 45.1055 26.9225 44.7886C27.51 47.9718 29.2692 50.8191 31.8531 52.7687C31.9856 52.8681 32.1468 52.9219 32.3125 52.9219C32.4781 52.9219 32.6393 52.8681 32.7719 52.7687C35.3567 50.8198 37.1171 47.9727 37.7055 44.7894C38.6956 45.1056 39.7287 45.2662 40.768 45.2656H41.1202C43.5269 45.2635 45.8539 44.4026 47.6824 42.8378L50.4233 40.4874C50.5071 40.4155 50.5744 40.3263 50.6205 40.226C50.6666 40.1257 50.6905 40.0166 50.6905 39.9062C50.6905 39.7959 50.6666 39.6868 50.6205 39.5865C50.5744 39.4862 50.5071 39.397 50.4233 39.3251L47.6793 36.9747ZM45.9406 23.9812L44.8534 30.8566C44.626 32.3113 44.0841 33.6989 43.2655 34.9228C42.3941 36.2211 41.2375 37.303 39.884 38.0859C38.5305 38.8688 37.016 39.3319 35.4561 39.44L35.0213 39.4691C34.2653 39.523 33.5088 39.3728 32.8308 39.0342C32.8209 39.0296 32.8124 39.025 32.8017 39.0212C32.3946 38.8146 32.0227 38.5448 31.7 38.2219C31.267 37.7889 30.9316 37.2683 30.7163 36.6951C30.5009 36.1219 30.4105 35.5093 30.4512 34.8983L30.4796 34.4634C30.6333 32.1558 31.5667 29.969 33.1268 28.2618C34.6869 26.5545 36.7809 25.4282 39.0653 25.0677L45.9406 23.9812ZM38.0631 20.4984L39.2957 23.4844L38.8264 23.5609C38.5202 23.6092 38.2139 23.6834 37.9077 23.7577C37.6956 23.3236 37.4774 22.8994 37.2508 22.5028L36.7477 21.6224L38.0631 20.4984ZM28.7049 23.2593L32.3125 16.949L35.9201 23.2593C36.0954 23.5655 36.2623 23.881 36.4254 24.2056C35.6264 24.5135 34.8633 24.9078 34.15 25.3816C33.5695 25.7764 33.0262 26.2234 32.5269 26.7168C31.3253 25.5246 29.8694 24.6197 28.2684 24.0701C28.4132 23.7891 28.5609 23.5219 28.7049 23.2593ZM26.5611 20.4977L27.8787 21.6178L27.3734 22.5028C27.1682 22.8673 26.9677 23.2516 26.7671 23.6513C26.5787 23.6122 26.3996 23.5808 26.2235 23.5556L25.3522 23.4177L26.5611 20.4977ZM19.1146 23.9812L25.9922 25.0669C26.3273 25.1178 26.6595 25.1861 26.9876 25.2713C28.6959 25.7123 30.2555 26.6017 31.5047 27.8477C30.0167 29.7107 29.1292 31.9817 28.9598 34.3601L28.9315 34.7949C28.8757 35.6237 28.9979 36.4548 29.29 37.2324C29.5821 38.0099 30.0373 38.7159 30.625 39.3029C30.6748 39.3535 30.7299 39.3971 30.782 39.4453C30.5351 39.4743 30.2862 39.483 30.0378 39.4714L29.5945 39.44C29.0235 39.4027 28.457 39.3143 27.9017 39.1758C26.9435 38.9492 26.0231 38.585 25.1692 38.0948C23.8913 37.3571 22.7905 36.3483 21.9444 35.1395L21.7913 34.9243C20.9753 33.6997 20.4338 32.3131 20.2041 30.8596L19.1146 23.9812ZM23.86 43.7344H23.5078C21.4669 43.7325 19.4936 43.0028 17.9425 41.6764L15.8791 39.9062L17.9463 38.1361C18.8472 37.3694 19.898 36.7989 21.0318 36.4609C22.6484 38.5735 24.9488 40.0588 27.5396 40.6627C28.1791 40.8228 28.8318 40.9253 29.4896 40.9689L29.9314 41.0003C29.9988 41.0042 30.0661 41.0049 30.1327 41.0065L29.9031 41.2361C29.1351 42.0074 28.2252 42.6228 27.2234 43.0484C26.1603 43.5027 25.016 43.7361 23.86 43.7344ZM32.3125 51.1801C30.1955 49.4058 28.7946 46.9232 28.3703 44.1937C29.3378 43.7144 30.2211 43.0811 30.9857 42.3187L32.3125 40.9888L33.6393 42.3157C34.4041 43.0781 35.2873 43.7115 36.2547 44.1915C35.8309 46.9217 34.43 49.4052 32.3125 51.1801ZM46.6833 41.6756C45.1321 43.0025 43.1584 43.7325 41.1172 43.7344H40.765C39.607 43.7355 38.4608 43.501 37.3962 43.0453C36.3962 42.619 35.4879 42.0037 34.7211 41.2331L34.4861 40.998C34.5695 40.998 34.653 41.0103 34.7365 41.0103C34.8658 41.0103 34.996 41.0065 35.1254 40.998L35.5603 40.9689C37.1841 40.8534 38.7664 40.4031 40.2077 39.6464C41.6491 38.8897 42.9182 37.8429 43.9354 36.572C44.9394 36.9198 45.8704 37.4501 46.6817 38.1361L48.7459 39.9062L46.6833 41.6756Z" fill="#264065"/>
<path d="M12.4062 39.1406H10.875V40.6719H12.4062V39.1406Z" fill="#264065"/>
<path d="M17 20H15.4688V21.5312H17V20Z" fill="#264065"/>
<path d="M33.0781 11.5781H31.5469V13.1094H33.0781V11.5781Z" fill="#264065"/>
<path d="M49.1562 20H47.625V21.5312H49.1562V20Z" fill="#264065"/>
<path d="M53.75 39.1406H52.2188V40.6719H53.75V39.1406Z" fill="#264065"/>
</svg>
