<svg width="29" height="28" viewBox="0 0 29 28" fill="none" xmlns="http://www.w3.org/2000/svg">
<g clip-path="url(#clip0_1126_405)">
<path d="M25.0367 22.505L21.07 18.55C22.3498 16.9195 23.0442 14.9061 23.0417 12.8333C23.0417 10.9874 22.4943 9.18287 21.4687 7.64802C20.4432 6.11316 18.9855 4.91688 17.28 4.21046C15.5746 3.50404 13.698 3.31921 11.8875 3.67934C10.077 4.03947 8.41396 4.92838 7.10867 6.23367C5.80338 7.53896 4.91447 9.20201 4.55434 11.0125C4.19421 12.823 4.37904 14.6996 5.08546 16.405C5.79188 18.1105 6.98816 19.5682 8.52302 20.5937C10.0579 21.6193 11.8624 22.1667 13.7083 22.1667C15.7811 22.1692 17.7945 21.4748 19.425 20.195L23.38 24.1617C23.4885 24.271 23.6175 24.3578 23.7597 24.417C23.9018 24.4763 24.0543 24.5068 24.2083 24.5068C24.3624 24.5068 24.5148 24.4763 24.657 24.417C24.7992 24.3578 24.9282 24.271 25.0367 24.1617C25.146 24.0532 25.2328 23.9242 25.292 23.782C25.3513 23.6398 25.3818 23.4874 25.3818 23.3333C25.3818 23.1793 25.3513 23.0268 25.292 22.8847C25.2328 22.7425 25.146 22.6135 25.0367 22.505ZM6.70834 12.8333C6.70834 11.4489 7.11888 10.0955 7.88805 8.94435C8.65722 7.7932 9.75047 6.89599 11.0296 6.36618C12.3086 5.83637 13.7161 5.69774 15.074 5.96784C16.4318 6.23794 17.6791 6.90462 18.6581 7.88359C19.6371 8.86256 20.3037 10.1098 20.5738 11.4677C20.8439 12.8256 20.7053 14.233 20.1755 15.5121C19.6457 16.7912 18.7485 17.8845 17.5973 18.6536C16.4462 19.4228 15.0928 19.8333 13.7083 19.8333C11.8518 19.8333 10.0713 19.0958 8.75859 17.7831C7.44584 16.4703 6.70834 14.6899 6.70834 12.8333Z" fill="#264065"/>
</g>
<defs>
<clipPath id="clip0_1126_405">
<rect width="28" height="28" fill="white" transform="translate(0.875)"/>
</clipPath>
</defs>
</svg>
