<svg width="29" height="28" viewBox="0 0 29 28" fill="none" xmlns="http://www.w3.org/2000/svg">
<path d="M23.0417 8.16668H19.5417V7.00001C19.5417 5.76233 19.05 4.57535 18.1748 3.70018C17.2997 2.82501 16.1127 2.33334 14.875 2.33334C13.6373 2.33334 12.4503 2.82501 11.5752 3.70018C10.7 4.57535 10.2083 5.76233 10.2083 7.00001V8.16668H6.70832C6.3989 8.16668 6.10216 8.28959 5.88337 8.50839C5.66457 8.72718 5.54166 9.02392 5.54166 9.33334L5.54166 22.1667C5.54166 23.0949 5.91041 23.9852 6.56678 24.6416C7.22316 25.2979 8.1134 25.6667 9.04166 25.6667H20.7083C21.6366 25.6667 22.5268 25.2979 23.1832 24.6416C23.8396 23.9852 24.2083 23.0949 24.2083 22.1667V9.33334C24.2083 9.02392 24.0854 8.72718 23.8666 8.50839C23.6478 8.28959 23.3511 8.16668 23.0417 8.16668ZM12.5417 7.00001C12.5417 6.38117 12.7875 5.78768 13.2251 5.35009C13.6627 4.91251 14.2562 4.66668 14.875 4.66668C15.4938 4.66668 16.0873 4.91251 16.5249 5.35009C16.9625 5.78768 17.2083 6.38117 17.2083 7.00001V8.16668H12.5417V7.00001ZM21.875 22.1667C21.875 22.4761 21.7521 22.7728 21.5333 22.9916C21.3145 23.2104 21.0177 23.3333 20.7083 23.3333H9.04166C8.73224 23.3333 8.43549 23.2104 8.2167 22.9916C7.99791 22.7728 7.87499 22.4761 7.87499 22.1667L7.87499 10.5H10.2083V11.6667C10.2083 11.9761 10.3312 12.2728 10.55 12.4916C10.7688 12.7104 11.0656 12.8333 11.375 12.8333C11.6844 12.8333 11.9812 12.7104 12.1999 12.4916C12.4187 12.2728 12.5417 11.9761 12.5417 11.6667V10.5H17.2083V11.6667C17.2083 11.9761 17.3312 12.2728 17.55 12.4916C17.7688 12.7104 18.0656 12.8333 18.375 12.8333C18.6844 12.8333 18.9812 12.7104 19.1999 12.4916C19.4187 12.2728 19.5417 11.9761 19.5417 11.6667V10.5L21.875 10.5V22.1667Z" fill="#264065"/>
</svg>
