<svg width="22" height="22" viewBox="0 0 22 22" fill="none" xmlns="http://www.w3.org/2000/svg">
<path d="M11.375 13.8125C11.2598 13.8132 11.1457 13.7911 11.0391 13.7476C10.9325 13.704 10.8355 13.6399 10.7537 13.5588L7.25373 10.0588C7.08896 9.89399 6.9964 9.67052 6.9964 9.43751C6.9964 9.2045 7.08896 8.98102 7.25373 8.81626C7.41849 8.65149 7.64197 8.55893 7.87498 8.55893C8.10799 8.55893 8.33146 8.65149 8.49623 8.81626L11.375 11.7038L14.2537 8.82501C14.4211 8.68166 14.6364 8.60676 14.8566 8.61526C15.0769 8.62377 15.2858 8.71506 15.4416 8.87089C15.5974 9.02672 15.6887 9.23562 15.6972 9.45584C15.7057 9.67605 15.6308 9.89137 15.4875 10.0588L11.9875 13.5588C11.8245 13.7204 11.6045 13.8115 11.375 13.8125Z" fill="#264065"/>
</svg>
