<svg width="64" height="64" viewBox="0 0 64 64" fill="none" xmlns="http://www.w3.org/2000/svg">
<circle cx="32.1875" cy="32.25" r="31.5" fill="#A9D6CB"/>
<path d="M17.0069 31.0771C16.2919 31.7954 15.8905 32.7677 15.8906 33.7813V39.4009C15.8878 41.8896 16.7142 44.3084 18.2393 46.275C19.7645 48.2416 21.9014 49.644 24.3125 50.2606V52.9219C24.3125 53.1249 24.3932 53.3197 24.5368 53.4633C24.6803 53.6068 24.8751 53.6875 25.0781 53.6875H35.7969C35.9999 53.6875 36.1947 53.6068 36.3383 53.4633C36.4818 53.3197 36.5625 53.1249 36.5625 52.9219V50.2606C38.9736 49.644 41.1106 48.2416 42.6357 46.275C44.1609 44.3084 44.9873 41.8896 44.9844 39.4009V36.4678C45.7206 36.4483 46.4448 36.2764 47.1113 35.963C47.7778 35.6497 48.3722 35.2017 48.8569 34.6472L50.9187 32.3044C50.9912 32.2215 51.045 32.1239 51.0763 32.0184C51.1077 31.9128 51.1159 31.8018 51.1004 31.6928C51.0849 31.5838 51.0461 31.4794 50.9866 31.3867C50.9271 31.2941 50.8483 31.2154 50.7557 31.1559L48.1234 29.4746C47.3776 28.9964 46.5241 28.7124 45.6404 28.6483C44.7568 28.5843 43.8712 28.7423 43.0642 29.1079L43.6637 28.0812L46.3434 27.1509C47.5557 26.7371 48.5785 25.9005 49.2245 24.7943C49.8705 23.6881 50.0966 22.3863 49.8614 21.127L49.3025 18.0561C49.2826 17.9475 49.2396 17.8445 49.1762 17.7541C49.1128 17.6638 49.0306 17.5882 48.9352 17.5326C48.8399 17.4769 48.7337 17.4426 48.6238 17.4318C48.514 17.4211 48.4031 17.4343 48.2988 17.4704L45.3496 18.4925C44.138 18.9073 43.1161 19.7443 42.471 20.8506C41.8258 21.9569 41.6005 23.2584 41.8361 24.5172L42.3445 27.3079L41.7588 28.3109C41.6737 27.4322 41.3716 26.5884 40.8797 25.8554C40.3878 25.1224 39.7214 24.5231 38.9405 24.1114L36.1843 22.6445C36.0868 22.5925 35.9792 22.5621 35.8689 22.5557C35.7585 22.5492 35.6481 22.5666 35.5452 22.6069C35.4422 22.6471 35.3492 22.7091 35.2726 22.7887C35.1959 22.8683 35.1373 22.9635 35.1009 23.0679L34.0742 26.0132C33.6222 27.2985 33.6786 28.7081 34.2319 29.9531H28.3206L27.1805 26.3034C26.9131 25.4434 26.3268 24.7182 25.5419 24.2765C24.757 23.8348 23.8329 23.71 22.9589 23.9277C22.085 24.1454 21.3274 24.6891 20.8414 25.4474C20.3554 26.2057 20.1778 27.1211 20.345 28.0061L20.7141 29.9531H19.7188C18.7016 29.9537 17.7263 30.3579 17.0069 31.0771ZM45.8557 19.9388L47.9611 19.2099L48.36 21.4019C48.5279 22.3013 48.3662 23.2311 47.9047 24.0211C47.4431 24.8111 46.7124 25.4085 45.8465 25.7039L43.7418 26.4336L43.3429 24.2416C43.1749 23.3421 43.3365 22.4123 43.7979 21.6222C44.2593 20.832 44.9898 20.2345 45.8557 19.9388ZM35.0313 52.1563H25.8438V50.5484C26.2657 50.5975 26.69 50.623 27.1147 50.625H33.7603C34.1851 50.623 34.6094 50.5975 35.0313 50.5484V52.1563ZM43.4531 39.4009C43.4535 40.6739 43.2031 41.9345 42.7161 43.1107C42.2292 44.2869 41.5152 45.3556 40.6151 46.2557C39.7149 47.1558 38.6462 47.8698 37.4701 48.3568C36.2939 48.8437 35.0333 49.0942 33.7603 49.0938H27.1147C24.6323 49.102 22.2422 48.153 20.4416 46.4441C18.641 44.7352 17.5685 42.398 17.4471 39.9185C18.3367 40.414 19.3383 40.6734 20.3565 40.6719H22.0156C22.2187 40.6719 22.4134 40.5912 22.557 40.4476C22.7006 40.3041 22.7813 40.1093 22.7813 39.9063C22.7813 39.7032 22.7006 39.5085 22.557 39.3649C22.4134 39.2213 22.2187 39.1406 22.0156 39.1406H20.3535C19.2745 39.1422 18.2321 38.7499 17.4219 38.0374V36.8239C18.0806 37.3305 18.8877 37.6066 19.7188 37.6094H41.1563C41.9872 37.6055 42.7939 37.3296 43.4531 36.8239V39.4009ZM38.998 36.0781L39.9933 34.3754L41.9517 35.6249C42.049 35.6877 42.1523 35.7328 42.2519 35.788C41.9169 35.9753 41.5401 36.0751 41.1563 36.0781H38.998ZM42.3667 31.4637C42.9677 30.7738 43.797 30.3235 44.7029 30.1951C45.6088 30.0667 46.5306 30.2689 47.2996 30.7647L49.1785 31.9629L47.7069 33.6358C47.1061 34.3258 46.2767 34.7763 45.3708 34.9046C44.4648 35.033 43.543 34.8307 42.774 34.3348L40.8959 33.1358L42.3667 31.4637ZM35.5197 26.5185L36.2532 24.4146L38.2201 25.462C39.0296 25.8882 39.6586 26.5917 39.992 27.4437C40.3253 28.2957 40.3407 29.2392 40.0354 30.1017L39.3019 32.2048L37.3343 31.1582C36.5251 30.7316 35.8966 30.028 35.5635 29.1761C35.2305 28.3242 35.2152 27.3808 35.5205 26.5185H35.5197ZM35.2609 31.4844C35.6552 31.8954 36.1121 32.2414 36.6146 32.5096L38.668 33.6029L37.2255 36.0781H30.2346L29.7561 34.5469H31.2031C31.4062 34.5469 31.6009 34.4662 31.7445 34.3226C31.8881 34.1791 31.9688 33.9843 31.9688 33.7813C31.9688 33.5782 31.8881 33.3835 31.7445 33.2399C31.6009 33.0963 31.4062 33.0156 31.2031 33.0156H29.2776L28.7991 31.4844H35.2609ZM22.2759 26.0814C22.5052 25.8041 22.8051 25.594 23.1439 25.4731C23.4827 25.3523 23.8479 25.3252 24.2009 25.3948C24.5538 25.4644 24.8814 25.628 25.149 25.8684C25.4166 26.1088 25.6144 26.417 25.7213 26.7605L28.6306 36.0781H23.4167L21.8503 27.7236C21.7959 27.4354 21.8058 27.1388 21.8794 26.8549C21.953 26.571 22.0884 26.3068 22.2759 26.0814ZM20.9974 31.4844L21.2845 33.0156H19.7188C19.5157 33.0156 19.321 33.0963 19.1774 33.2399C19.0338 33.3835 18.9531 33.5782 18.9531 33.7813C18.9531 33.9843 19.0338 34.1791 19.1774 34.3226C19.321 34.4662 19.5157 34.5469 19.7188 34.5469H21.5716L21.8587 36.0781H19.7188C19.1096 36.0781 18.5254 35.8361 18.0946 35.4054C17.6639 34.9746 17.4219 34.3904 17.4219 33.7813C17.4219 33.1721 17.6639 32.5879 18.0946 32.1571C18.5254 31.7264 19.1096 31.4844 19.7188 31.4844H20.9974Z" fill="#264065"/>
<path d="M25.8437 39.1406H25.0781C24.8751 39.1406 24.6803 39.2213 24.5367 39.3649C24.3932 39.5085 24.3125 39.7032 24.3125 39.9063C24.3125 40.1093 24.3932 40.3041 24.5367 40.4476C24.6803 40.5912 24.8751 40.6719 25.0781 40.6719H25.8437C26.0468 40.6719 26.2415 40.5912 26.3851 40.4476C26.5287 40.3041 26.6094 40.1093 26.6094 39.9063C26.6094 39.7032 26.5287 39.5085 26.3851 39.3649C26.2415 39.2213 26.0468 39.1406 25.8437 39.1406ZM34.2656 34.5469H35.0312C35.2343 34.5469 35.429 34.4662 35.5726 34.3226C35.7162 34.1791 35.7969 33.9843 35.7969 33.7813C35.7969 33.5782 35.7162 33.3835 35.5726 33.2399C35.429 33.0963 35.2343 33.0156 35.0312 33.0156H34.2656C34.0626 33.0156 33.8678 33.0963 33.7242 33.2399C33.5807 33.3835 33.5 33.5782 33.5 33.7813C33.5 33.9843 33.5807 34.1791 33.7242 34.3226C33.8678 34.4662 34.0626 34.5469 34.2656 34.5469ZM25.1907 15.9721C25.0974 16.259 25.0615 16.5615 25.0852 16.8623C25.1089 17.1631 25.1916 17.4563 25.3286 17.7251C25.4656 17.994 25.6542 18.2332 25.8837 18.4291C26.1132 18.625 26.379 18.7737 26.666 18.8669C26.9922 18.9729 27.333 19.0269 27.6759 19.0269C27.7762 19.0269 27.8742 19.007 27.9737 18.9978C27.8901 19.3354 27.8843 19.6877 27.9567 20.0279C28.0291 20.3681 28.1778 20.6874 28.3916 20.9618C28.6054 21.2361 28.8788 21.4583 29.191 21.6116C29.5032 21.7649 29.8462 21.8453 30.194 21.8467C30.3158 21.8467 30.4374 21.8373 30.5577 21.8184C30.8559 21.772 31.142 21.6669 31.3993 21.5092C31.6566 21.3515 31.8801 21.1443 32.0568 20.8996C32.3195 20.5389 32.5048 20.1279 32.6012 19.6922C33.0522 19.9718 33.5864 20.0859 34.1123 20.0151C34.6382 19.9443 35.1231 19.6929 35.4841 19.3039C35.8451 18.915 36.0597 18.4127 36.0912 17.8829C36.1227 17.3532 35.9691 16.829 35.6568 16.4C35.3973 16.0428 35.0678 15.7422 34.6882 15.5165C35.0919 15.1715 35.3635 14.6972 35.4569 14.1745C35.5503 13.6518 35.4597 13.1128 35.2005 12.6494C34.9413 12.1859 34.5295 11.8266 34.0352 11.6325C33.5409 11.4385 32.9946 11.4217 32.4894 11.585C32.0695 11.7216 31.6819 11.9422 31.3501 12.2335C31.1461 11.7441 30.779 11.3403 30.3111 11.0907C29.8433 10.8412 29.3035 10.7612 28.7833 10.8643C28.2632 10.9675 27.7948 11.2474 27.4575 11.6566C27.1203 12.0658 26.9351 12.5791 26.9332 13.1094C26.9333 13.55 27.0229 13.9861 27.1966 14.391C26.7435 14.4271 26.3113 14.5965 25.9543 14.8779C25.5973 15.1592 25.3316 15.5399 25.1907 15.9721ZM34.4187 17.2989C34.4779 17.3802 34.5204 17.4724 34.5439 17.5702C34.5674 17.668 34.5714 17.7694 34.5557 17.8687C34.5399 17.968 34.5048 18.0633 34.4523 18.149C34.3998 18.2348 34.3309 18.3093 34.2495 18.3685C34.1682 18.4276 34.076 18.4701 33.9782 18.4936C33.8805 18.5171 33.779 18.5211 33.6797 18.5054C33.5804 18.4897 33.4851 18.4545 33.3994 18.402C33.3136 18.3495 33.2391 18.2806 33.18 18.1993L32.1081 16.7239L32.7527 16.6167C33.0664 16.5638 33.3887 16.5996 33.6831 16.7201C33.9775 16.8407 34.2323 17.0411 34.4187 17.2989ZM31.8003 14.4148C31.8464 14.0999 31.9799 13.8043 32.1856 13.5615C32.3913 13.3187 32.661 13.1384 32.9641 13.0412C33.0401 13.0159 33.1197 13.003 33.1999 13.003C33.3826 13.0022 33.5596 13.0669 33.6988 13.1853C33.8381 13.3037 33.9304 13.468 33.959 13.6485C33.9877 13.829 33.9508 14.0138 33.8551 14.1695C33.7594 14.3252 33.6112 14.4415 33.4372 14.4975L31.7031 15.061L31.8003 14.4148ZM30.9535 18.2046C31.1013 18.4864 31.1671 18.804 31.1436 19.1214C31.1201 19.4387 31.0081 19.7431 30.8203 20C30.7612 20.0813 30.6866 20.1502 30.6009 20.2028C30.5151 20.2553 30.4199 20.2904 30.3206 20.3061C30.2212 20.3218 30.1198 20.3178 30.022 20.2943C29.9243 20.2709 29.8321 20.2283 29.7507 20.1692C29.6694 20.1101 29.6005 20.0355 29.548 19.9498C29.4954 19.864 29.4603 19.7688 29.4446 19.6695C29.4289 19.5701 29.4329 19.4687 29.4564 19.3709C29.4799 19.2732 29.5224 19.181 29.5815 19.0996L30.6534 17.6243L30.9535 18.2046ZM29.2301 12.3438C29.4332 12.3438 29.6279 12.4244 29.7715 12.568C29.9151 12.7116 29.9957 12.9063 29.9957 13.1094V14.9331L29.4108 14.6406C29.1256 14.4994 28.8858 14.2811 28.7185 14.0104C28.5512 13.7397 28.4632 13.4276 28.4645 13.1094C28.4645 12.9063 28.5451 12.7116 28.6887 12.568C28.8323 12.4244 29.027 12.3438 29.2301 12.3438ZM26.6477 16.4452C26.6976 16.2916 26.7948 16.1577 26.9255 16.0626C27.0561 15.9676 27.2134 15.9163 27.375 15.9162C27.4558 15.9161 27.5362 15.9288 27.6131 15.9537L29.3472 16.5172L28.8879 16.9834C28.6654 17.2109 28.3836 17.3714 28.0745 17.4467C27.7654 17.5221 27.4414 17.5094 27.1392 17.4099C26.9461 17.3471 26.7858 17.2103 26.6936 17.0293C26.6015 16.8484 26.5849 16.6383 26.6477 16.4452ZM23.8891 14.2708C23.7992 14.2258 23.7013 14.199 23.6009 14.1918C23.5006 14.1846 23.3999 14.1973 23.3045 14.2291C23.2091 14.2609 23.1208 14.3111 23.0449 14.377C22.9689 14.4429 22.9066 14.5231 22.8616 14.6131C22.5723 15.1954 22.4217 15.8367 22.4217 16.4869C22.4217 17.1371 22.5723 17.7785 22.8616 18.3608C22.9255 18.4887 23.0239 18.5961 23.1457 18.6709C23.2675 18.7457 23.4078 18.785 23.5507 18.7842C23.6693 18.7842 23.7863 18.7564 23.8922 18.703C23.9822 18.6581 24.0625 18.5959 24.1284 18.52C24.1944 18.444 24.2447 18.3558 24.2766 18.2604C24.3084 18.165 24.3212 18.0642 24.3141 17.9639C24.307 17.8635 24.2802 17.7655 24.2352 17.6756C24.0512 17.3063 23.9555 16.8994 23.9555 16.4869C23.9555 16.0744 24.0512 15.6675 24.2352 15.2983C24.28 15.2081 24.3067 15.11 24.3136 15.0095C24.3205 14.9091 24.3075 14.8082 24.2753 14.7128C24.2432 14.6173 24.1925 14.5292 24.1262 14.4533C24.06 14.3775 23.9794 14.3155 23.8891 14.2708ZM37.3748 18.9748C37.2943 19.0397 37.2278 19.1201 37.1792 19.2114C37.1307 19.3026 37.1011 19.4027 37.0923 19.5057C37.0834 19.6087 37.0955 19.7124 37.1279 19.8105C37.1602 19.9087 37.212 19.9993 37.2803 20.0769C37.3486 20.1545 37.4319 20.2174 37.5251 20.262C37.6184 20.3065 37.7197 20.3317 37.823 20.3361C37.9262 20.3404 38.0293 20.3238 38.126 20.2872C38.2226 20.2506 38.3109 20.1949 38.3854 20.1233L38.521 20.0038C38.9748 19.6077 39.3086 19.0923 39.4845 18.5161C39.6605 17.9399 39.6714 17.3259 39.5163 16.7438C39.4929 16.6443 39.4498 16.5505 39.3896 16.468C39.3294 16.3854 39.2533 16.3157 39.1658 16.263C39.0782 16.2103 38.981 16.1757 38.8798 16.1612C38.7787 16.1467 38.6757 16.1525 38.5768 16.1784C38.478 16.2043 38.3853 16.2498 38.3043 16.3121C38.2233 16.3743 38.1556 16.4522 38.1051 16.5411C38.0547 16.6299 38.0225 16.728 38.0106 16.8295C37.9987 16.931 38.0071 17.0338 38.0356 17.132C38.1172 17.4396 38.111 17.764 38.0178 18.0683C37.9246 18.3726 37.748 18.6447 37.508 18.8539L37.3748 18.9748Z" fill="#264065"/>
</svg>
