<svg width="182" height="28" viewBox="0 0 182 28" fill="none" xmlns="http://www.w3.org/2000/svg">
<path d="M16.4825 8.003C15.9785 7.079 15.2855 6.3755 14.4035 5.8925C13.5215 5.4095 12.4925 5.168 11.3165 5.168C10.0145 5.168 8.8595 5.462 7.8515 6.05C6.8435 6.638 6.056 7.478 5.489 8.57C4.922 9.662 4.6385 10.922 4.6385 12.35C4.6385 13.82 4.922 15.101 5.489 16.193C6.077 17.285 6.8855 18.125 7.9145 18.713C8.9435 19.301 10.1405 19.595 11.5055 19.595C13.1855 19.595 14.561 19.154 15.632 18.272C16.703 17.369 17.4065 16.1195 17.7425 14.5235H10.1825V11.153H22.0895V14.996C21.7955 16.529 21.1655 17.9465 20.1995 19.2485C19.2335 20.5505 17.984 21.6005 16.451 22.3985C14.939 23.1755 13.238 23.564 11.348 23.564C9.227 23.564 7.3055 23.0915 5.5835 22.1465C3.8825 21.1805 2.5385 19.847 1.5515 18.146C0.5855 16.445 0.1025 14.513 0.1025 12.35C0.1025 10.187 0.5855 8.255 1.5515 6.554C2.5385 4.832 3.8825 3.4985 5.5835 2.5535C7.3055 1.5875 9.2165 1.1045 11.3165 1.1045C13.7945 1.1045 15.947 1.7135 17.774 2.9315C19.601 4.1285 20.861 5.819 21.554 8.003H16.4825ZM29.7622 0.0649997V23.375H25.3522V0.0649997H29.7622ZM41.8683 23.6585C40.1883 23.6585 38.6763 23.291 37.3323 22.556C35.9883 21.8 34.9278 20.7395 34.1508 19.3745C33.3948 18.0095 33.0168 16.4345 33.0168 14.6495C33.0168 12.8645 33.4053 11.2895 34.1823 9.9245C34.9803 8.5595 36.0618 7.5095 37.4268 6.7745C38.7918 6.0185 40.3143 5.6405 41.9943 5.6405C43.6743 5.6405 45.1968 6.0185 46.5618 6.7745C47.9268 7.5095 48.9978 8.5595 49.7748 9.9245C50.5728 11.2895 50.9718 12.8645 50.9718 14.6495C50.9718 16.4345 50.5623 18.0095 49.7433 19.3745C48.9453 20.7395 47.8533 21.8 46.4673 22.556C45.1023 23.291 43.5693 23.6585 41.8683 23.6585ZM41.8683 19.8155C42.6663 19.8155 43.4118 19.6265 44.1048 19.2485C44.8188 18.8495 45.3858 18.2615 45.8058 17.4845C46.2258 16.7075 46.4358 15.7625 46.4358 14.6495C46.4358 12.9905 45.9948 11.72 45.1128 10.838C44.2518 9.935 43.1913 9.4835 41.9313 9.4835C40.6713 9.4835 39.6108 9.935 38.7498 10.838C37.9098 11.72 37.4898 12.9905 37.4898 14.6495C37.4898 16.3085 37.8993 17.5895 38.7183 18.4925C39.5583 19.3745 40.6083 19.8155 41.8683 19.8155ZM78.3987 5.924L73.2957 23.375H68.5392L65.3577 11.1845L62.1762 23.375H57.3882L52.2537 5.924H56.7267L59.8137 19.217L63.1527 5.924H67.8147L71.0907 19.1855L74.1777 5.924H78.3987Z" fill="#264065"/>
<path d="M97.1648 27.2495L93.8258 23.249C92.9018 23.48 91.9568 23.5955 90.9908 23.5955C88.9328 23.5955 87.0428 23.1125 85.3208 22.1465C83.5988 21.1805 82.2338 19.847 81.2258 18.146C80.2178 16.424 79.7138 14.4815 79.7138 12.3185C79.7138 10.1765 80.2178 8.255 81.2258 6.554C82.2338 4.832 83.5988 3.488 85.3208 2.522C87.0428 1.556 88.9328 1.073 90.9908 1.073C93.0698 1.073 94.9598 1.556 96.6608 2.522C98.3828 3.488 99.7373 4.832 100.724 6.554C101.732 8.255 102.236 10.1765 102.236 12.3185C102.236 14.2715 101.816 16.0565 100.976 17.6735C100.157 19.2695 99.0338 20.5715 97.6058 21.5795L102.646 27.2495H97.1648ZM84.2498 12.3185C84.2498 13.7885 84.5333 15.08 85.1003 16.193C85.6673 17.306 86.4548 18.167 87.4628 18.776C88.4918 19.364 89.6678 19.658 90.9908 19.658C92.3138 19.658 93.4793 19.364 94.4873 18.776C95.4953 18.167 96.2828 17.306 96.8498 16.193C97.4168 15.08 97.7003 13.7885 97.7003 12.3185C97.7003 10.8485 97.4168 9.5675 96.8498 8.4755C96.2828 7.3625 95.4953 6.512 94.4873 5.924C93.4793 5.336 92.3138 5.042 90.9908 5.042C89.6678 5.042 88.4918 5.336 87.4628 5.924C86.4548 6.512 85.6673 7.3625 85.1003 8.4755C84.5333 9.5675 84.2498 10.8485 84.2498 12.3185ZM122.053 5.924V23.375H117.612V21.17C117.045 21.926 116.299 22.5245 115.375 22.9655C114.472 23.3855 113.485 23.5955 112.414 23.5955C111.049 23.5955 109.842 23.312 108.792 22.745C107.742 22.157 106.912 21.3065 106.303 20.1935C105.715 19.0595 105.421 17.7155 105.421 16.1615V5.924H109.831V15.5315C109.831 16.9175 110.178 17.9885 110.871 18.7445C111.564 19.4795 112.509 19.847 113.706 19.847C114.924 19.847 115.879 19.4795 116.572 18.7445C117.265 17.9885 117.612 16.9175 117.612 15.5315V5.924H122.053ZM142.627 14.2715C142.627 14.9015 142.585 15.4685 142.501 15.9725H129.743C129.848 17.2325 130.289 18.2195 131.066 18.9335C131.843 19.6475 132.799 20.0045 133.933 20.0045C135.571 20.0045 136.736 19.301 137.429 17.894H142.186C141.682 19.574 140.716 20.96 139.288 22.052C137.86 23.123 136.106 23.6585 134.027 23.6585C132.347 23.6585 130.835 23.291 129.491 22.556C128.168 21.8 127.129 20.7395 126.373 19.3745C125.638 18.0095 125.27 16.4345 125.27 14.6495C125.27 12.8435 125.638 11.258 126.373 9.893C127.108 8.528 128.137 7.478 129.46 6.743C130.783 6.008 132.305 5.6405 134.027 5.6405C135.686 5.6405 137.167 5.9975 138.469 6.7115C139.792 7.4255 140.81 8.444 141.524 9.767C142.259 11.069 142.627 12.5705 142.627 14.2715ZM138.059 13.0115C138.038 11.8775 137.629 10.9745 136.831 10.3025C136.033 9.6095 135.056 9.263 133.901 9.263C132.809 9.263 131.885 9.599 131.129 10.271C130.394 10.922 129.943 11.8355 129.775 13.0115H138.059ZM162.068 14.2715C162.068 14.9015 162.026 15.4685 161.942 15.9725H149.185C149.29 17.2325 149.731 18.2195 150.508 18.9335C151.285 19.6475 152.24 20.0045 153.374 20.0045C155.012 20.0045 156.178 19.301 156.871 17.894H161.627C161.123 19.574 160.157 20.96 158.729 22.052C157.301 23.123 155.548 23.6585 153.469 23.6585C151.789 23.6585 150.277 23.291 148.933 22.556C147.61 21.8 146.57 20.7395 145.814 19.3745C145.079 18.0095 144.712 16.4345 144.712 14.6495C144.712 12.8435 145.079 11.258 145.814 9.893C146.549 8.528 147.578 7.478 148.901 6.743C150.224 6.008 151.747 5.6405 153.469 5.6405C155.128 5.6405 156.608 5.9975 157.91 6.7115C159.233 7.4255 160.252 8.444 160.966 9.767C161.701 11.069 162.068 12.5705 162.068 14.2715ZM157.501 13.0115C157.48 11.8775 157.07 10.9745 156.272 10.3025C155.474 9.6095 154.498 9.263 153.343 9.263C152.251 9.263 151.327 9.599 150.571 10.271C149.836 10.922 149.384 11.8355 149.216 13.0115H157.501ZM174.958 5.672C177.037 5.672 178.717 6.3335 179.998 7.6565C181.279 8.9585 181.919 10.7855 181.919 13.1375V23.375H177.509V13.736C177.509 12.35 177.163 11.2895 176.47 10.5545C175.777 9.7985 174.832 9.4205 173.635 9.4205C172.417 9.4205 171.451 9.7985 170.737 10.5545C170.044 11.2895 169.697 12.35 169.697 13.736V23.375H165.287V5.924H169.697V8.0975C170.285 7.3415 171.031 6.7535 171.934 6.3335C172.858 5.8925 173.866 5.672 174.958 5.672Z" fill="#A9D6CB"/>
</svg>
